<svg xmlns="http://www.w3.org/2000/svg" height="24" viewBox="0 -960 960 960" width="24"><path d="M650.769-315.384v-329.232q0-8.5 5.758-14.25t14.269-5.75q8.512 0 14.243 5.75t5.731 14.25v329.232q0 8.5-5.758 14.25t-14.27 5.75q-8.511 0-14.242-5.75-5.731-5.75-5.731-14.25ZM269.23-355.769v-248.462q0-14.539 9.693-23.423 9.692-8.885 22.615-8.885 5 0 9.462 1 4.461 1 8.692 4.231l186.462 124.462q7.462 5.231 10.808 11.808 3.346 6.576 3.346 15.038t-3.346 15.038q-3.346 6.577-10.808 11.808L319.692-328.692q-4.231 3.231-8.692 4.231-4.462 1-9.462 1-12.923 0-22.615-8.885-9.693-8.884-9.693-23.423Z" fill="white"/></svg>