<svg xmlns="http://www.w3.org/2000/svg" height="40" viewBox="0 -960 960 960" width="40"><path d="M254-160q-89 0-151.5-62T40-373q0-78 49-137.667Q138-570.333 214.667-584q21.666-95.333 96-155.333 74.333-60 170.666-60 113.667 0 192.167 81.5t78.5 196.5v16Q823-504 871.5-454.5T920-332.666q0 70.999-50.833 121.833Q818.333-160 747.334-160H513.333v-307.334l53.334 53.001q9.667 9.666 23.166 9.666 13.5 0 23.5-10Q623-424.333 623-438.333T613.333-462l-110-110.667q-10-10-23.333-10-13.333 0-23.333 10L346-462q-9.667 9.667-9.5 23.167.167 13.5 10.167 23.5 9.666 9.666 23.5 9.833Q384-405.333 394-415l52.667-52.334V-160H254Z" fill="white"/></svg>